<?xml version="1.0" encoding="UTF-8"?>
<svg version="1.1" xmlns="http://www.w3.org/2000/svg" width="634" height="604">
<path d="M0 0 C209.22 0 418.44 0 634 0 C634 199.32 634 398.64 634 604 C424.78 604 215.56 604 0 604 C0 404.68 0 205.36 0 0 Z " fill="#FEFEFE" transform="translate(0,0)"/>
<path d="M0 0 C2.70485527 0.16774659 5.41063983 0.31751102 8.11648369 0.46835709 C9.85172041 0.56991792 11.58690988 0.67228946 13.32205009 0.77548599 C14.28337349 0.83250183 15.24469688 0.88951767 16.23515129 0.94826126 C34.82897954 2.05816598 53.41672465 3.22166017 71.98611259 4.68954849 C72.74325554 4.74753616 73.50039848 4.80552383 74.28048515 4.86526871 C81.49928034 5.42257517 88.59545634 6.07567022 95.67678642 7.6385231 C100.21703498 8.57367877 104.82530955 9.06262061 109.42361259 9.62704849 C130.53440939 12.30802532 130.53440939 12.30802532 140.04861259 15.12704849 C141.47467796 15.413587 142.90343384 15.68686505 144.33376884 15.95126724 C150.59174851 17.18486607 156.74389461 18.78127978 162.90627861 20.42123795 C164.84564238 20.93544667 166.78794694 21.43852175 168.73025322 21.94150162 C179.91743482 24.90767038 190.68290158 28.63632336 200.98611259 33.93954849 C201.64941582 34.2764772 202.31271904 34.61340591 202.99612236 34.96054459 C224.93653283 46.21913038 224.93653283 46.21913038 232.04861259 52.12704849 C232.04861259 52.78704849 232.04861259 53.44704849 232.04861259 54.12704849 C232.73955009 54.33200943 233.43048759 54.53697037 234.14236259 54.74814224 C238.01983634 56.58785761 240.56162664 59.15024005 243.54861259 62.18954849 C244.15447197 62.80225601 244.76033134 63.41496353 245.38455009 64.04623795 C259.4467745 78.59531581 274.15823904 97.04300281 275.04861259 118.12704849 C275.11177666 119.26142349 275.17494072 120.39579849 275.24001884 121.56454849 C275.69836338 136.23157367 270.69663128 148.41573844 260.86892509 159.34970474 C256.86552007 163.25860879 252.44766817 166.67897425 248.04861259 170.12704849 C247.25841728 170.74837662 246.46822197 171.36970474 245.65408134 172.00986099 C244.18402395 173.15810197 242.71013873 174.30146152 241.23220634 175.43954849 C239.7367118 176.59527952 238.2501003 177.76257114 236.77126884 178.93954849 C230.19505298 184.15555561 224.12949733 188.36762021 216.23045158 191.30017471 C212.88709402 192.56724103 209.5986656 193.95624771 206.30642509 195.34970474 C204.825561 195.97248436 203.34460011 196.59503388 201.863554 197.21738052 C201.09795158 197.53950516 200.33234917 197.86162979 199.54354668 198.19351578 C183.81918044 204.80213131 168.02762972 211.15524759 152.04861259 217.12704849 C150.72694753 217.62951991 149.40532606 218.132106 148.08376884 218.63486099 C137.91989172 222.40628798 127.49648437 225.26464011 117.04861259 228.12704849 C115.90730888 228.44077408 114.76600517 228.75449966 113.5901165 229.07773209 C100.25353526 232.72926625 86.89562574 236.25757729 73.42361259 239.37704849 C72.46753105 239.59876724 71.51144951 239.82048599 70.5263958 240.04892349 C67.37179089 240.76480175 64.2115912 241.44909436 61.04861259 242.12704849 C60.01539375 242.3543515 60.01539375 242.3543515 58.9613018 242.58624649 C44.76555328 245.69043314 30.54311613 247.56678246 16.11111259 249.18954849 C11.85153012 249.67642262 7.59250877 250.16801775 3.33376884 250.66220474 C2.30244331 250.78150345 1.27111778 250.90080215 0.20853996 251.02371597 C-11.10458953 252.34978808 -22.38958161 253.90667488 -33.63498116 255.72153091 C-40.11525034 256.73898936 -46.53090993 257.35073159 -53.07663155 257.66684341 C-53.9485341 257.70930537 -54.82043665 257.75176733 -55.71876049 257.79551601 C-65.43917663 258.23756418 -75.15585134 258.32939517 -84.88498116 258.36532974 C-85.84753382 258.36940527 -86.81008648 258.3734808 -87.8018074 258.37767982 C-92.91766436 258.39835441 -98.03349614 258.41272325 -103.14938545 258.42221451 C-107.26444981 258.43096911 -111.37916482 258.45161766 -115.49411201 258.48373795 C-137.83102291 258.65391325 -159.97446987 258.31976358 -182.23263741 256.29892349 C-183.14133017 256.21691004 -184.05002293 256.13489658 -184.98625183 256.05039787 C-221.27798882 252.69376279 -253.77866695 246.03361423 -286.04562569 228.68075943 C-288.82460529 227.1948389 -291.61776281 225.73990932 -294.41623116 224.29111099 C-314.47608582 213.77902063 -332.06097567 199.0531374 -339.71896553 176.90732193 C-341.05476933 172.36359529 -342.03566384 167.77107513 -342.95138741 163.12704849 C-343.21181831 162.18007095 -343.21181831 162.18007095 -343.47751045 161.21396255 C-346.60869694 147.42448182 -343.74925427 131.71585971 -340.45529366 118.22616959 C-340.01612414 116.39672218 -339.63489124 114.55355903 -339.26388741 112.70907974 C-336.625929 100.22823903 -330.44599232 89.54713565 -321.95138741 80.12704849 C-321.37130928 79.45415787 -320.79123116 78.78126724 -320.19357491 78.08798599 C-305.01322048 61.59331516 -280.626619 50.65917342 -260.82638741 41.06454849 C-259.74969795 40.54078629 -258.6730085 40.01702408 -257.56369209 39.47739029 C-250.87036848 36.30068016 -244.10829642 33.64202176 -237.09836006 31.24399185 C-234.1495687 30.19738824 -231.30952022 29.02260589 -228.45138741 27.75204849 C-210.33730694 20.12506724 -191.02236038 15.6333424 -171.95138741 11.12704849 C-171.11011299 10.92603531 -170.26883858 10.72502213 -169.402071 10.51791763 C-164.68185219 9.4226377 -160.02689321 8.70656697 -155.20138741 8.18954849 C-150.36555295 7.63779395 -145.73515255 6.91287225 -141.01388741 5.68954849 C-134.57436219 4.10381541 -128.09506474 3.2882458 -121.51388741 2.50204849 C-119.97776802 2.31751114 -119.97776802 2.31751114 -118.41061592 2.12924576 C-104.67527572 0.55180992 -91.00057232 -0.05268164 -77.18966866 -0.22451401 C-75.50641329 -0.24772788 -73.82316036 -0.2711183 -72.13990974 -0.29467392 C-68.631217 -0.34275321 -65.12250114 -0.38770832 -61.61374092 -0.4305687 C-57.17448314 -0.4851842 -52.73541705 -0.5491595 -48.29632473 -0.61574364 C-44.82397371 -0.66647952 -41.35156352 -0.7113098 -37.87911224 -0.75458527 C-36.24525693 -0.77576235 -34.61142475 -0.79883325 -32.9776268 -0.8240509 C-21.94666651 -0.99081494 -11.0110143 -0.68393657 0 0 Z " fill="#F0EFEF" transform="translate(345.9513874053955,159.87295150756836)"/>
<path d="M0 0 C2.70485527 0.16774659 5.41063983 0.31751102 8.11648369 0.46835709 C9.85172041 0.56991792 11.58690988 0.67228946 13.32205009 0.77548599 C14.28337349 0.83250183 15.24469688 0.88951767 16.23515129 0.94826126 C34.82897954 2.05816598 53.41672465 3.22166017 71.98611259 4.68954849 C72.74325554 4.74753616 73.50039848 4.80552383 74.28048515 4.86526871 C81.49928034 5.42257517 88.59545634 6.07567022 95.67678642 7.6385231 C100.21703498 8.57367877 104.82530955 9.06262061 109.42361259 9.62704849 C130.53440939 12.30802532 130.53440939 12.30802532 140.04861259 15.12704849 C141.47467796 15.413587 142.90343384 15.68686505 144.33376884 15.95126724 C150.59174851 17.18486607 156.74389461 18.78127978 162.90627861 20.42123795 C164.84564238 20.93544667 166.78794694 21.43852175 168.73025322 21.94150162 C179.91703042 24.90756315 190.68372155 28.63527858 200.98611259 33.93954849 C201.64651543 34.27575211 202.30691826 34.61195572 202.9873333 34.95834732 C222.1816156 44.82465283 222.1816156 44.82465283 228.04861259 51.12704849 C224.46899257 50.56480451 221.93302419 49.6539825 218.86111259 47.75204849 C211.18899431 43.40200757 203.85272743 42.0236126 195.17361259 41.18954849 C177.30127458 39.39954379 177.30127458 39.39954379 172.12673759 34.19345474 C170.54861259 32.06454849 170.54861259 32.06454849 169.32986259 30.02939224 C165.74878869 24.71237092 159.96116947 23.5045549 154.04861259 22.12704849 C149.93796468 21.42295421 145.81987816 20.94324725 141.67361259 20.50204849 C140.64622978 20.38087662 139.61884697 20.25970474 138.56033134 20.13486099 C120.75262834 18.14903229 102.79827225 17.93644347 84.90041924 17.5748024 C76.05653305 17.39266095 67.22773654 17.17131148 58.39626884 16.65829849 C32.0296034 15.17334309 5.63392682 14.96048222 -20.76730537 14.9966774 C-25.06388015 15.00251372 -29.36039433 14.99898509 -33.65696716 14.99310493 C-37.01463474 14.98950355 -40.37228767 14.99063358 -43.72995567 14.99323273 C-45.31756917 14.99389608 -46.90518403 14.99309442 -48.49279594 14.99075317 C-50.68199212 14.98821878 -52.87108564 14.992072 -55.06027412 14.99765396 C-56.29897255 14.99844955 -57.53767097 14.99924515 -58.81390572 15.00006485 C-61.42080043 15.10557399 -63.47095927 15.41386068 -65.95138741 16.12704849 C-67.82462929 16.21829523 -69.70093131 16.25710363 -71.57638741 16.25204849 C-72.53802803 16.25462662 -73.49966866 16.25720474 -74.49044991 16.25986099 C-76.95138741 16.12704849 -76.95138741 16.12704849 -78.95138741 15.12704849 C-117.75914088 12.90702299 -161.02688902 21.35599015 -197.83664131 33.45468521 C-200.21188213 34.2098703 -202.59975754 34.90839218 -204.99435616 35.59970474 C-213.10042833 37.94313071 -220.93164132 40.26214188 -228.53341866 43.98642349 C-231.04934783 45.17325923 -233.57208062 46.09618513 -236.20138741 47.00204849 C-243.35132555 49.53748755 -250.13558686 52.81942974 -256.95138741 56.12704849 C-257.61364326 56.44721939 -258.27589912 56.76739029 -258.95822334 57.09726334 C-286.69031534 70.5604218 -313.53540576 85.72671219 -324.95138741 116.12704849 C-325.83775406 119.09358194 -326.58712508 122.05027598 -327.25998116 125.07236099 C-327.70577602 127.04191794 -328.21482896 128.99871224 -328.79904366 130.93173599 C-330.93787603 138.4325714 -331.26800352 145.60432509 -331.32638741 153.37704849 C-331.34016426 154.3950856 -331.35394112 155.41312271 -331.36813545 156.46200943 C-331.32854138 162.93432094 -330.34799038 168.13554106 -327.95138741 174.12704849 C-327.51439522 175.37228287 -327.07740303 176.61751724 -326.62716866 177.90048599 C-321.17676715 192.29954099 -314.21152024 200.83023765 -301.11105537 208.79843521 C-298.85667425 210.18531539 -296.63934242 211.62004459 -294.42404366 213.06845474 C-275.86540618 225.14482389 -258.37841214 235.92660729 -235.70871162 236.76816177 C-229.88778859 236.9972289 -224.21020006 237.69947286 -218.45138741 238.56454849 C-217.10753975 238.76467545 -217.10753975 238.76467545 -215.73654366 238.96884537 C-213.96596431 239.23301478 -212.19545485 239.49765313 -210.42502022 239.76279068 C-199.57437034 241.36061634 -188.69735192 242.36069393 -177.76388741 243.18954849 C-176.72667549 243.2689064 -175.68946358 243.34826431 -174.620821 243.43002701 C-171.06552652 243.68698742 -167.50948483 243.91223252 -163.95138741 244.12704849 C-163.25213142 244.17088669 -162.55287544 244.21472488 -161.83242989 244.25989151 C-142.06208848 245.45960915 -122.2506725 245.41656286 -102.45138741 245.43954849 C-101.530424 245.44084637 -100.6094606 245.44214424 -99.66058922 245.44348145 C-64.93477061 245.48043477 -30.55313827 244.22766422 4.04861259 241.12704849 C5.16024773 241.02803238 6.27188286 240.92901627 7.4172039 240.82699966 C48.47269492 237.13171184 87.1641211 230.66636122 126.5276165 218.23495865 C139.73115015 214.08035903 152.98219402 210.09301544 166.30569267 206.34091568 C170.79895015 205.0719686 175.27468294 203.76193938 179.73611259 202.38486099 C181.11923637 201.95959122 181.11923637 201.95959122 182.53030205 201.52573013 C184.29902707 200.97913777 186.06589473 200.42648874 187.83059502 199.86703873 C193.8280977 198.01679105 193.8280977 198.01679105 196.04861259 199.12704849 C184.44322715 204.90624853 172.31665005 209.3697054 160.19851494 213.93710709 C157.42172981 214.98609567 154.6504446 216.04808215 151.88064384 217.11532974 C140.44552913 221.48148598 128.85856869 224.93063773 117.04861259 228.12704849 C115.91455986 228.43787369 114.78050713 228.74869888 113.61208916 229.06894302 C100.26808806 232.72363532 86.90343908 236.2557681 73.42361259 239.37704849 C72.46753105 239.59876724 71.51144951 239.82048599 70.5263958 240.04892349 C67.37179089 240.76480175 64.2115912 241.44909436 61.04861259 242.12704849 C60.01539375 242.3543515 60.01539375 242.3543515 58.9613018 242.58624649 C44.76555328 245.69043314 30.54311613 247.56678246 16.11111259 249.18954849 C11.85153012 249.67642262 7.59250877 250.16801775 3.33376884 250.66220474 C2.30244331 250.78150345 1.27111778 250.90080215 0.20853996 251.02371597 C-11.10458953 252.34978808 -22.38958161 253.90667488 -33.63498116 255.72153091 C-40.11525034 256.73898936 -46.53090993 257.35073159 -53.07663155 257.66684341 C-53.9485341 257.70930537 -54.82043665 257.75176733 -55.71876049 257.79551601 C-65.43917663 258.23756418 -75.15585134 258.32939517 -84.88498116 258.36532974 C-85.84753382 258.36940527 -86.81008648 258.3734808 -87.8018074 258.37767982 C-92.91766436 258.39835441 -98.03349614 258.41272325 -103.14938545 258.42221451 C-107.26444981 258.43096911 -111.37916482 258.45161766 -115.49411201 258.48373795 C-137.83102291 258.65391325 -159.97446987 258.31976358 -182.23263741 256.29892349 C-183.14133017 256.21691004 -184.05002293 256.13489658 -184.98625183 256.05039787 C-221.27798882 252.69376279 -253.77866695 246.03361423 -286.04562569 228.68075943 C-288.82460529 227.1948389 -291.61776281 225.73990932 -294.41623116 224.29111099 C-314.47608582 213.77902063 -332.06097567 199.0531374 -339.71896553 176.90732193 C-341.05476933 172.36359529 -342.03566384 167.77107513 -342.95138741 163.12704849 C-343.21181831 162.18007095 -343.21181831 162.18007095 -343.47751045 161.21396255 C-346.60869694 147.42448182 -343.74925427 131.71585971 -340.45529366 118.22616959 C-340.01612414 116.39672218 -339.63489124 114.55355903 -339.26388741 112.70907974 C-336.625929 100.22823903 -330.44599232 89.54713565 -321.95138741 80.12704849 C-321.37130928 79.45415787 -320.79123116 78.78126724 -320.19357491 78.08798599 C-305.01322048 61.59331516 -280.626619 50.65917342 -260.82638741 41.06454849 C-259.74969795 40.54078629 -258.6730085 40.01702408 -257.56369209 39.47739029 C-250.87036848 36.30068016 -244.10829642 33.64202176 -237.09836006 31.24399185 C-234.1495687 30.19738824 -231.30952022 29.02260589 -228.45138741 27.75204849 C-210.33730694 20.12506724 -191.02236038 15.6333424 -171.95138741 11.12704849 C-171.11011299 10.92603531 -170.26883858 10.72502213 -169.402071 10.51791763 C-164.68185219 9.4226377 -160.02689321 8.70656697 -155.20138741 8.18954849 C-150.36555295 7.63779395 -145.73515255 6.91287225 -141.01388741 5.68954849 C-134.57436219 4.10381541 -128.09506474 3.2882458 -121.51388741 2.50204849 C-119.97776802 2.31751114 -119.97776802 2.31751114 -118.41061592 2.12924576 C-104.67527572 0.55180992 -91.00057232 -0.05268164 -77.18966866 -0.22451401 C-75.50641329 -0.24772788 -73.82316036 -0.2711183 -72.13990974 -0.29467392 C-68.631217 -0.34275321 -65.12250114 -0.38770832 -61.61374092 -0.4305687 C-57.17448314 -0.4851842 -52.73541705 -0.5491595 -48.29632473 -0.61574364 C-44.82397371 -0.66647952 -41.35156352 -0.7113098 -37.87911224 -0.75458527 C-36.24525693 -0.77576235 -34.61142475 -0.79883325 -32.9776268 -0.8240509 C-21.94666651 -0.99081494 -11.0110143 -0.68393657 0 0 Z " fill="#090909" transform="translate(345.9513874053955,159.87295150756836)"/>
<path d="M0 0 C1.7895469 0.09657872 3.58285534 0.12980468 5.375 0.125 C6.33148438 0.12757813 7.28796875 0.13015625 8.2734375 0.1328125 C10.864092 0.1110424 10.864092 0.1110424 12.73971558 -0.50021362 C15.81863572 -1.18101394 18.73783563 -1.12736924 21.89111328 -1.12939453 C22.5783548 -1.13114685 23.26559631 -1.13289917 23.97366333 -1.13470459 C26.25590526 -1.13911549 28.5380697 -1.13617811 30.8203125 -1.1328125 C32.43708307 -1.13348804 34.05385355 -1.13446014 35.67062378 -1.13571167 C39.08202061 -1.13718947 42.49339136 -1.13503982 45.90478516 -1.13037109 C50.16687138 -1.12480831 54.42889335 -1.12796534 58.6909771 -1.13380718 C75.74244791 -1.15366238 92.78291361 -1.04632242 109.828125 -0.55859375 C110.52857059 -0.53944538 111.22901619 -0.52029701 111.95068741 -0.50056839 C122.05431875 -0.21643746 132.01217153 0.40751342 142 2 C142 2.33 142 2.66 142 3 C141.30257187 3.05375793 140.60514374 3.10751587 139.88658142 3.16290283 C131.63851806 3.7990803 123.3906845 4.43819608 115.14296341 5.07879257 C112.93996005 5.24980903 110.73693398 5.42053062 108.53390503 5.59121704 C93.92670445 6.72378066 79.32048848 7.85788449 64.7265625 9.15234375 C63.73108398 9.24051361 62.73560547 9.32868347 61.70996094 9.41952515 C57.88027257 9.7593004 54.05061499 10.09941569 50.22106934 10.4407959 C37.42697942 11.57191491 24.65433051 12.36265241 11.82168579 12.89111328 C-16.18688018 14.04887552 -42.69379364 19.1732542 -69.88623047 25.69189453 C-88.52303346 30.15147751 -107.45123021 32.79753121 -126.38040161 35.67764282 C-135.20285797 37.02330671 -144.0163063 38.41962279 -152.82192993 39.87136841 C-154.33309173 40.11980792 -155.84461883 40.36603771 -157.35653687 40.60983276 C-174.07448367 43.27837051 -174.07448367 43.27837051 -189.625 49.6875 C-190.25817139 50.02910156 -190.89134277 50.37070313 -191.54370117 50.72265625 C-196.3759546 53.42580784 -200.42028444 56.62580554 -204.36328125 60.53125 C-206 62 -206 62 -208 62 C-208.26296875 62.57363281 -208.5259375 63.14726562 -208.796875 63.73828125 C-210.0699689 66.13153245 -211.57612768 68.05745977 -213.25 70.1875 C-223.12889954 84.41799512 -224.95748437 102.24625394 -227.5625 118.9375 C-227.94869329 121.33515073 -228.33607283 123.73261069 -228.72460938 126.12988281 C-231.15585459 141.22276188 -233.47946367 156.33525212 -235.59204102 171.47631836 C-235.76791748 172.72678955 -235.94379395 173.97726074 -236.125 175.265625 C-236.34542969 176.87099121 -236.34542969 176.87099121 -236.5703125 178.50878906 C-237 181 -237 181 -238 183 C-238.66 183 -239.32 183 -240 183 C-250.39605245 171.70274176 -255.38985913 153.20486125 -255.3125 138.375 C-255.30903564 137.30411133 -255.30557129 136.23322266 -255.30200195 135.12988281 C-255.19415506 127.28148923 -254.25920089 120.52715064 -252 113 C-251.70996094 111.57494141 -251.70996094 111.57494141 -251.4140625 110.12109375 C-248.84759738 97.60540993 -242.60553715 85.43833107 -234 76 C-232.88625 74.7315625 -232.88625 74.7315625 -231.75 73.4375 C-212.66870715 52.96001499 -182.43813874 38.66732328 -156.3125 29.625 C-151.84411275 28.0523537 -147.47021065 26.38509821 -143.125 24.5 C-121.63130279 15.45297974 -97.86764623 10.27595227 -75 6 C-74.11908691 5.8340332 -73.23817383 5.66806641 -72.33056641 5.49707031 C-11.52433769 -5.76216884 -11.52433769 -5.76216884 0 0 Z " fill="#FAFAFA" transform="translate(269,175)"/>
<path d="M0 0 C4.09725371 0.40169154 4.57887526 1.15168462 7.1875 4.3125 C9.13894529 7.51030492 10.87853501 10.81184471 12.625 14.125 C13.69240832 16.11674484 14.76147327 18.10760258 15.83203125 20.09765625 C16.3832666 21.12391113 16.93450195 22.15016602 17.50244141 23.20751953 C20.20918106 28.195105 23.00834449 33.12921722 25.8125 38.0625 C31.32875687 47.78083208 36.77924886 57.53369828 42.1875 67.3125 C44.99915902 63.95169478 47.27346689 60.60779955 49.3671875 56.76171875 C49.95967285 55.68196777 50.5521582 54.6022168 51.16259766 53.48974609 C51.78956543 52.33812988 52.4165332 51.18651367 53.0625 50 C54.39723308 47.56690406 55.73676147 45.13647734 57.078125 42.70703125 C57.58764206 41.78374023 57.58764206 41.78374023 58.10745239 40.84179688 C62.12737279 33.58022008 66.32067826 26.42090616 70.53076172 19.26831055 C71.06975098 18.35218994 71.60874023 17.43606934 72.1640625 16.4921875 C72.93024902 15.19039551 72.93024902 15.19039551 73.71191406 13.86230469 C75.57714415 10.63919697 77.36109609 7.37504549 79.12255859 4.09423828 C80.1875 2.3125 80.1875 2.3125 82.1875 0.3125 C85.25 0.125 85.25 0.125 88.1875 0.3125 C89.73343569 1.85843569 89.31344233 3.29740074 89.31448364 5.45019531 C89.31871338 6.78794006 89.31871338 6.78794006 89.32302856 8.15270996 C89.31999222 9.63172791 89.31999222 9.63172791 89.31689453 11.140625 C89.31952301 12.68925232 89.31952301 12.68925232 89.32220459 14.26916504 C89.32662533 17.70029352 89.32368433 21.13137094 89.3203125 24.5625 C89.32098548 26.93522146 89.32195545 29.30794284 89.32321167 31.68066406 C89.32468894 36.66081395 89.32253314 41.64094594 89.31787109 46.62109375 C89.3121738 53.02078679 89.31545264 59.4204379 89.32144356 65.82012939 C89.32504837 70.72184569 89.32391095 75.62355196 89.32131577 80.52526855 C89.32064628 82.88570155 89.32147568 85.24613544 89.32379532 87.60656738 C89.32632054 90.89919463 89.32248309 94.19175292 89.31689453 97.484375 C89.31891876 98.47038696 89.32094299 99.45639893 89.32302856 100.47229004 C89.32020874 101.36411987 89.31738892 102.25594971 89.31448364 103.17480469 C89.3139181 104.34399445 89.3139181 104.34399445 89.31334114 105.5368042 C89.1875 107.3125 89.1875 107.3125 88.1875 108.3125 C84.6875 108.4375 84.6875 108.4375 81.1875 108.3125 C79.19092426 106.31592426 80.00256573 102.31637402 79.98217773 99.57983398 C79.97227814 98.7701416 79.96237854 97.96044922 79.95217896 97.1262207 C79.92047013 94.43704195 79.89576965 91.7478455 79.87109375 89.05859375 C79.85053231 87.19913766 79.82953606 85.33968632 79.80812073 83.48023987 C79.75281634 78.57626185 79.7034441 73.67224107 79.65527344 68.76818848 C79.60511934 63.76794612 79.54940155 58.76776618 79.49414062 53.76757812 C79.38645679 43.94927201 79.28503468 34.13091181 79.1875 24.3125 C78.55745811 25.44804825 78.55745811 25.44804825 77.91468811 26.60653687 C76.32322914 29.47440044 74.73138477 32.34204943 73.13929749 35.20956421 C72.45647001 36.4395839 71.77378662 37.6696836 71.09126282 38.89987183 C66.63530858 46.93104511 62.15387638 54.94714352 57.625 62.9375 C57.13705963 63.79945984 56.64911926 64.66141968 56.14639282 65.54949951 C54.85328379 67.82033871 53.52124066 70.06533739 52.1875 72.3125 C51.71715332 73.16424805 51.24680664 74.01599609 50.76220703 74.89355469 C47.13163438 81.05052582 47.13163438 81.05052582 42.59765625 82.30859375 C38.75899669 81.1873358 37.6532004 79.98458994 35.72802734 76.53833008 C35.18202881 75.46748169 35.18202881 75.46748169 34.625 74.375 C34.21717285 73.63080811 33.8093457 72.88661621 33.38916016 72.11987305 C32.47705785 70.45340927 31.57600238 68.78086778 30.68408203 67.10351562 C28.47729965 62.98802848 26.17575637 58.9271985 23.88305664 54.85913086 C22.13930222 51.76143543 20.40812198 48.65704429 18.6796875 45.55078125 C16.13690106 40.99209094 13.56236369 36.45274729 10.96923828 31.92260742 C10.60343155 31.28301842 10.23762482 30.64342941 9.86073303 29.98445892 C8.96990862 28.42699439 8.07874054 26.86972644 7.1875 25.3125 C7.17941315 26.32283295 7.17132629 27.33316589 7.16299438 28.37411499 C7.08562055 37.88023496 6.99790377 47.38621026 6.89997292 56.89214134 C6.84995646 61.77962767 6.80362707 66.66709182 6.765625 71.5546875 C6.72883955 76.26857243 6.68249835 80.98227412 6.62943649 85.69600296 C6.61085658 87.49735943 6.59576202 89.29875523 6.58415604 91.10017014 C6.56735482 93.61693978 6.53833548 96.13328647 6.50634766 98.64990234 C6.50418747 99.40012161 6.50202728 100.15034088 6.49980164 100.92329407 C6.41560432 106.08439568 6.41560432 106.08439568 4.1875 108.3125 C0.625 108.5 0.625 108.5 -2.8125 108.3125 C-4.35843569 106.76656431 -3.93844233 105.32759926 -3.93948364 103.17480469 C-3.94230347 102.28297485 -3.94512329 101.39114502 -3.94802856 100.47229004 C-3.94600433 99.48627808 -3.9439801 98.50026611 -3.94189453 97.484375 C-3.94364685 96.45195679 -3.94539917 95.41953857 -3.94720459 94.35583496 C-3.95162533 90.92470648 -3.94868433 87.49362906 -3.9453125 84.0625 C-3.94598548 81.68977854 -3.94695545 79.31705716 -3.94821167 76.94433594 C-3.94968894 71.96418605 -3.94753314 66.98405406 -3.94287109 62.00390625 C-3.9371738 55.60421321 -3.94045264 49.2045621 -3.94644356 42.80487061 C-3.95004837 37.90315431 -3.94891095 33.00144804 -3.94631577 28.09973145 C-3.94564628 25.73929845 -3.94647568 23.37886456 -3.94879532 21.01843262 C-3.95132054 17.72580537 -3.94748309 14.43324708 -3.94189453 11.140625 C-3.94391876 10.15461304 -3.94594299 9.16860107 -3.94802856 8.15270996 C-3.94520874 7.26088013 -3.94238892 6.36905029 -3.93948364 5.45019531 C-3.93910662 4.67073547 -3.93872959 3.89127563 -3.93834114 3.0881958 C-3.72639933 0.0975666 -3.01570487 0.33507832 0 0 Z " fill="#040404" transform="translate(180.8125,233.6875)"/>
<path d="M0 0 C2.89069337 1.71119269 5.24110619 3.68754056 7.4375 6.25 C7.84742188 5.75628906 8.25734375 5.26257813 8.6796875 4.75390625 C9.21851563 4.11324219 9.75734375 3.47257812 10.3125 2.8125 C10.84617187 2.17441406 11.37984375 1.53632813 11.9296875 0.87890625 C13.70812627 -1.0423605 14.78480802 -1.68212003 17.390625 -1.953125 C22.5228387 -2.05786406 26.06505836 -1.73121021 30.4375 1.25 C32.27899717 3.16457245 33.830132 5.12260117 35.4375 7.25 C35.91960937 6.68410156 36.40171875 6.11820312 36.8984375 5.53515625 C37.84589844 4.43494141 37.84589844 4.43494141 38.8125 3.3125 C39.43898438 2.58160156 40.06546875 1.85070312 40.7109375 1.09765625 C42.60163506 -0.92564679 43.58175241 -1.69050017 46.34765625 -1.8828125 C52.32638889 -1.86111111 52.32638889 -1.86111111 53.4375 -0.75 C53.64518229 0.72396739 53.80466017 2.2049126 53.9375 3.6875 C54.22896944 7.09497505 54.22896944 7.09497505 55.4375 10.25 C58.09684047 10.84130428 58.09684047 10.84130428 61.4375 10.25 C63.6745296 8.60698391 65.62037559 6.81701496 67.60546875 4.87890625 C69.4375 3.25 69.4375 3.25 72.4375 2.25 C73.4275 2.91 74.4175 3.57 75.4375 4.25 C75.890625 6.61328125 75.890625 6.61328125 75.4375 9.25 C73.609375 11.41796875 73.609375 11.41796875 71.1875 13.4375 C70.39859375 14.11167969 69.6096875 14.78585937 68.796875 15.48046875 C64.67163946 18.5743954 61.75041205 19.70826636 56.46875 19.5703125 C53.08320842 19.03643864 50.99569552 17.44273902 48.4375 15.25 C46.35742578 12.2244375 46.4375 11.10524891 46.4375 7.25 C40.97248971 10.68514932 38.39412623 15.23680013 36.4375 21.25 C35.54332803 27.2162198 35.68871962 33.29427077 35.6875 39.3125 C35.66587235 41.73167245 35.6374987 44.15063513 35.60516357 46.56968689 C35.58741062 48.06535301 35.57711973 49.56113003 35.57501221 51.05690002 C35.54605287 56.14144713 35.54605287 56.14144713 34.4375 57.25 C32.625 57.3828125 32.625 57.3828125 30.4375 57.375 C29.715625 57.37757813 28.99375 57.38015625 28.25 57.3828125 C26.4375 57.25 26.4375 57.25 25.4375 56.25 C25.32556532 54.78772266 25.2807889 53.32021798 25.26391602 51.85375977 C25.25042618 50.91931534 25.23693634 49.98487091 25.22303772 49.02210999 C25.21259933 48.00547775 25.20216095 46.98884552 25.19140625 45.94140625 C25.15847323 43.81184476 25.1252615 41.68228757 25.09179688 39.55273438 C25.04430487 36.17735712 24.99987809 32.80199799 24.96069336 29.42651367 C24.9211088 26.18129116 24.86953422 22.93643123 24.81640625 19.69140625 C24.8079921 18.67679825 24.79957794 17.66219025 24.79090881 16.61683655 C24.76594582 15.21044167 24.76594582 15.21044167 24.74047852 13.77563477 C24.73017105 12.94814224 24.71986359 12.12064972 24.70924377 11.26808167 C24.61457072 9.02279164 24.61457072 9.02279164 22.4375 7.25 C19.14035207 7.57971479 17.8148161 7.8726839 15.4375 10.25 C14.76457499 12.21690374 14.76457499 12.21690374 14.3125 14.375 C14.02375 15.65375 13.735 16.9325 13.4375 18.25 C12.53 18.12625 11.6225 18.0025 10.6875 17.875 C9.615 17.99875 8.5425 18.1225 7.4375 18.25 C5.39206777 20.94140528 5.39206777 20.94140528 3.4375 24.25 C-3.94827857 31.98836599 -12.18184515 34.08747607 -22.5625 35.25 C-24.56227312 35.28012404 -26.56287302 35.28862578 -28.5625 35.25 C-26.20581968 40.83671863 -23.97411895 45.1014217 -18.5625 48.25 C-13.77180638 49.2110733 -9.52535061 49.29325986 -5.14453125 46.96484375 C-2.38291486 44.91752522 0.01000867 42.67749133 2.4375 40.25 C5.73464793 40.57971479 7.0601839 40.8726839 9.4375 43.25 C9.31214702 46.75988337 7.27950644 49.21139522 5.03125 51.79296875 C-1.26846421 57.5522663 -9.17453811 58.68613368 -17.390625 58.5859375 C-23.39245179 57.95027604 -28.16059293 55.63197423 -32.4453125 51.3828125 C-39.67865209 42.40228943 -39.5905938 31.2619101 -38.5625 20.25 C-37.77264328 16.75003608 -36.61138909 14.18045859 -34.5625 11.25 C-34.07652344 10.54617188 -33.59054687 9.84234375 -33.08984375 9.1171875 C-25.17980311 -1.01813643 -12.15828221 -5.68292148 0 0 Z " fill="#070707" transform="translate(331.5625,284.75)"/>
<path d="M0 0 C0.33 -0.99 0.66 -1.98 1 -3 C3.33294775 -3.04241723 5.66702567 -3.04092937 8 -3 C9.59865963 -1.40134037 9.16483531 0.30456032 9.20532227 2.51977539 C9.2352401 3.96115623 9.2352401 3.96115623 9.26576233 5.43165588 C9.28247482 6.476436 9.29918732 7.52121613 9.31640625 8.59765625 C9.33718735 9.66165146 9.35796844 10.72564667 9.37937927 11.82188416 C9.44499254 15.2353544 9.50381423 18.64890429 9.5625 22.0625 C9.60567403 24.37045109 9.64928794 26.678394 9.69335938 28.98632812 C9.80068584 34.65746682 9.90242992 40.32868552 10 46 C13.06388686 46.04231888 15.75295442 46.05614672 18.75 45.375 C19.4925 45.25125 20.235 45.1275 21 45 C21.66 45.66 22.32 46.32 23 47 C22.9375 48.875 22.9375 48.875 22 51 C17.31311485 55.20617898 14.43267215 56.36066942 8.2578125 56.28125 C4.8492497 55.85665394 3.25384722 54.52704082 1 52 C-0.3125 49.25 -0.3125 49.25 -1 47 C-1.556875 47.763125 -2.11375 48.52625 -2.6875 49.3125 C-6.55762364 53.81021126 -10.51201936 55.58476421 -16.296875 56.2734375 C-22.88042616 56.5460049 -26.95179361 55.26345041 -32 51 C-39.60129198 42.98782737 -40.39860982 34.37722328 -40.2109375 23.796875 C-39.72719645 15.08953607 -37.06104651 8.32823882 -31 2 C-21.20011151 -6.36423603 -11.09702147 -5.39204514 0 0 Z " fill="#050505" transform="translate(452,287)"/>
<path d="M0 0 C3.0625 0.125 3.0625 0.125 5.0625 1.125 C5.3925 20.265 5.7225 39.405 6.0625 59.125 C9.0325 56.485 12.0025 53.845 15.0625 51.125 C19.98576506 48.66336747 23.65416142 48.56309469 29.0625 49.125 C33.26725482 50.8247945 35.26722472 52.9675204 37.0625 57.125 C37.84556527 63.05392276 36.38544296 67.30232172 33.0625 72.125 C28.75895575 76.96240163 24.17066762 79.19610496 18.0625 81.125 C21.28931809 88.10062146 26.55819029 94.97331295 33.0625 99.125 C36.62400998 99.125 38.36136557 98.66116163 41.1875 96.5 C43.0625 95.125 43.0625 95.125 45.3125 95.4375 C45.89 95.664375 46.4675 95.89125 47.0625 96.125 C47.9375 98.25 47.9375 98.25 48.0625 101.125 C45.03396326 105.37308174 41.89146143 107.6260484 36.71484375 108.5390625 C32.3343908 108.87941424 29.24188195 108.85225633 25.43359375 106.50390625 C17.83567548 99.8334334 11.19700956 91.82324962 6.0625 83.125 C6.03744385 83.84679443 6.0123877 84.56858887 5.98657227 85.31225586 C5.87098698 88.562535 5.74809226 91.81249688 5.625 95.0625 C5.58568359 96.19880859 5.54636719 97.33511719 5.50585938 98.50585938 C5.46396484 99.58544922 5.42207031 100.66503906 5.37890625 101.77734375 C5.32391968 103.27769165 5.32391968 103.27769165 5.26782227 104.80834961 C5.0625 107.125 5.0625 107.125 4.0625 108.125 C0.5625 108.25 0.5625 108.25 -2.9375 108.125 C-4.48343569 106.57906431 -4.06344233 105.14009926 -4.06448364 102.98730469 C-4.06730347 102.09547485 -4.07012329 101.20364502 -4.07302856 100.28479004 C-4.07100433 99.29877808 -4.0689801 98.31276611 -4.06689453 97.296875 C-4.06864685 96.26445679 -4.07039917 95.23203857 -4.07220459 94.16833496 C-4.07662533 90.73720648 -4.07368433 87.30612906 -4.0703125 83.875 C-4.07098548 81.50227854 -4.07195545 79.12955716 -4.07321167 76.75683594 C-4.07468894 71.77668605 -4.07253314 66.79655406 -4.06787109 61.81640625 C-4.0621738 55.41671321 -4.06545264 49.0170621 -4.07144356 42.61737061 C-4.07504837 37.71565431 -4.07391095 32.81394804 -4.07131577 27.91223145 C-4.07064628 25.55179845 -4.07147568 23.19136456 -4.07379532 20.83093262 C-4.07632054 17.53830537 -4.07248309 14.24574708 -4.06689453 10.953125 C-4.06891876 9.96711304 -4.07094299 8.98110107 -4.07302856 7.96520996 C-4.07020874 7.07338013 -4.06738892 6.18155029 -4.06448364 5.26269531 C-4.06410662 4.48323547 -4.06372959 3.70377563 -4.06334114 2.9006958 C-3.84551862 -0.17291382 -3.11629705 0.13260838 0 0 Z " fill="#030303" transform="translate(489.9375,233.875)"/>
<path d="M0 0 C209.22 0 418.44 0 634 0 C634 0.99 634 1.98 634 3 C424.78 3 215.56 3 0 3 C0 2.01 0 1.02 0 0 Z " fill="#E3E6EB" transform="translate(0,601)"/>
<path d="M0 0 C0.17534031 4.49950218 0.28121079 8.99811773 0.375 13.5 C0.45041016 15.40265625 0.45041016 15.40265625 0.52734375 17.34375 C0.63837778 24.44992797 0.38685242 29.12698065 -4.42602539 34.56445312 C-8.78949596 38.5441657 -13.04344818 39.63965866 -18.8203125 39.40625 C-22.66794222 38.68912905 -24.47067353 36.89065882 -27 34 C-30.97545273 26.84418509 -30.89551607 19.01740331 -30 11 C-28.44492242 5.80976243 -26.19252776 2.19252776 -22.375 -1.625 C-14.42507777 -4.8638572 -7.64248063 -3.08481285 0 0 Z " fill="#EAE9E9" transform="translate(452,295)"/>
<path d="M0 0 C4.45673714 3.20302705 7.39633172 6.84986044 10.5625 11.25 C11.03107422 11.88035156 11.49964844 12.51070312 11.98242188 13.16015625 C19.09432005 22.92782619 24.48444652 34.7916937 25 47 C25.06316406 48.134375 25.12632812 49.26875 25.19140625 50.4375 C25.65005964 65.11440859 20.64229312 77.22777206 10.85546875 88.1953125 C6.83748217 92.10333313 2.40551901 95.5430002 -2 99 C-2.66 98.67 -3.32 98.34 -4 98 C-3.4121875 97.29359375 -2.824375 96.5871875 -2.21875 95.859375 C10.60586197 79.33188211 14.82591327 61.4995909 14 41 C13.97099609 39.40671875 13.97099609 39.40671875 13.94140625 37.78125 C13.40468288 25.42034822 7.61449924 14.78444869 2 4 C1.33066623 2.66800356 0.66289399 1.33521301 0 0 Z " fill="#0F0F0F" transform="translate(596,231)"/>
<path d="M0 0 C6.57692308 0.57692308 6.57692308 0.57692308 8 2 C8.09319449 3.5348297 8.117458 5.07392082 8.11352539 6.61157227 C8.11344986 7.59251358 8.11337433 8.5734549 8.11329651 9.5841217 C8.10813522 10.6507756 8.10297394 11.7174295 8.09765625 12.81640625 C8.0962413 13.9025975 8.09482635 14.98878876 8.09336853 16.1078949 C8.08775048 19.59279075 8.07519492 23.07762342 8.0625 26.5625 C8.05748733 28.91861887 8.05292402 31.27473874 8.04882812 33.63085938 C8.03777519 39.42059464 8.02101951 45.21029281 8 51 C11.71599191 51.20086443 12.77208445 51.1519437 16 49 C18.1875 49.375 18.1875 49.375 20 50 C20.33 51.32 20.66 52.64 21 54 C15.82515007 58.38737277 13.18276782 60.40395503 6.26171875 60.359375 C2.67479071 59.78943134 1.13161106 57.79773951 -1 55 C-2.23468725 52.53062549 -2.13350873 50.88472841 -2.14526367 48.12304688 C-2.15164352 47.10859497 -2.15802338 46.09414307 -2.16459656 45.0489502 C-2.16570938 43.94998413 -2.1668222 42.85101807 -2.16796875 41.71875 C-2.17129715 40.59432495 -2.17462555 39.4698999 -2.17805481 38.31140137 C-2.18312411 35.93074961 -2.18546313 33.55009074 -2.18530273 31.16943359 C-2.18749091 27.51518137 -2.20565146 23.86123008 -2.22460938 20.20703125 C-2.22754287 17.89843854 -2.22952796 15.58984438 -2.23046875 13.28125 C-2.23765427 12.18228394 -2.24483978 11.08331787 -2.25224304 9.9510498 C-2.24916641 8.9365979 -2.24608978 7.922146 -2.24291992 6.87695312 C-2.24434494 5.98141724 -2.24576996 5.08588135 -2.24723816 4.16320801 C-2 2 -2 2 0 0 Z " fill="#0A0A0A" transform="translate(547,283)"/>
<path d="M0 0 C2.6875 1.5625 2.6875 1.5625 4 4 C4.07349869 8.04242785 3.45507327 10.30113747 1.25 13.6875 C-5.37188137 18.39922328 -13.88016725 20.75533328 -22 20 C-22.46244456 14.33505409 -21.48587913 10.46362571 -18 6 C-12.32694687 0.38483517 -7.86028826 -0.88602283 0 0 Z " fill="#EAE9E9" transform="translate(325,292)"/>
<path d="M0 0 C2 2 2 2 2.375 4.8125 C1.89763315 8.87011818 0.95682804 10.19101336 -2 13 C-7.65456038 16.88262441 -13.24820684 17.72328717 -20 18 C-20.40791545 14.60273404 -20.19778425 13.28353384 -18.20703125 10.4296875 C-17.41683594 9.58664062 -16.62664062 8.74359375 -15.8125 7.875 C-15.03519531 7.02679688 -14.25789063 6.17859375 -13.45703125 5.3046875 C-9.15429982 1.2687391 -5.99359969 -0.66595552 0 0 Z " fill="#E8E7E7" transform="translate(515,292)"/>
<path d="M0 0 C2 2 2 2 2.3125 5.375 C2 9 2 9 0.875 11.4375 C-1 13 -1 13 -4 13.4375 C-7 13 -7 13 -8.875 12 C-10.68755546 8.77767918 -10.53166222 5.60182435 -10 2 C-7.75948533 -2.34923435 -4.20160432 -0.99310648 0 0 Z " fill="#060606" transform="translate(554,253)"/>
<path d="M0 0 C4.67105792 1.55701931 8.08705685 4.08447373 12 7 C9 8 9 8 6.30078125 6.78515625 C5.31464844 6.21667969 4.32851563 5.64820313 3.3125 5.0625 C2.31863281 4.49660156 1.32476563 3.93070313 0.30078125 3.34765625 C-0.45847656 2.90292969 -1.21773437 2.45820313 -2 2 C-1.34 1.34 -0.68 0.68 0 0 Z " fill="#262626" transform="translate(562,203)"/>
<path d="M0 0 C-1.23884319 0.72767003 -2.49168341 1.43154815 -3.75 2.125 C-4.79414062 2.71667969 -4.79414062 2.71667969 -5.859375 3.3203125 C-8 4 -8 4 -10.265625 3.1171875 C-10.83796875 2.74851562 -11.4103125 2.37984375 -12 2 C-10.37787941 1.47026689 -8.75218416 0.95146893 -7.125 0.4375 C-6.22007812 0.14746094 -5.31515625 -0.14257812 -4.3828125 -0.44140625 C-2 -1 -2 -1 0 0 Z " fill="#3C3C3C" transform="translate(542,359)"/>
<path d="M0 0 C-2.17424117 2.50037734 -3.73045798 3.43628586 -7 4 C-7 3.34 -7 2.68 -7 2 C-7.66 1.67 -8.32 1.34 -9 1 C-5.92677456 0.08941469 -3.19902639 -0.08886184 0 0 Z " fill="#1F1F1F" transform="translate(532,362)"/>
</svg>
